<mxfile host="app.diagrams.net" modified="2024-05-17T06:36:11.169Z" agent="Mozilla/5.0 (Macintosh; Intel Mac OS X 10_15_7) AppleWebKit/537.36 (KHTML, like Gecko) Chrome/124.0.0.0 Safari/537.36" version="24.4.3" etag="ZcxEkasXuM4_JNFJ4j9U" type="github">
  <diagram name="Page-1" id="D1D0483haoYpFmXTiDAB">
    <mxGraphModel>
      <root>
        <mxCell id="0" />
        <mxCell id="1" parent="0" />
      </root>
    </mxGraphModel>
  </diagram>
</mxfile>
